<?xml version="1.0" encoding="UTF-8" standalone="no"?>
<!-- Created with Inkscape (http://www.inkscape.org/) -->

<svg
   width="108.81377mm"
   height="67.34713mm"
   viewBox="0 0 108.81377 67.34713"
   version="1.1"
   id="svg5"
   xml:space="preserve"
   inkscape:version="1.2.1 (9c6d41e410, 2022-07-14)"
   sodipodi:docname="logoClaquetaAlargada.svg"
   xmlns:inkscape="http://www.inkscape.org/namespaces/inkscape"
   xmlns:sodipodi="http://sodipodi.sourceforge.net/DTD/sodipodi-0.dtd"
   xmlns="http://www.w3.org/2000/svg"
   xmlns:svg="http://www.w3.org/2000/svg"><sodipodi:namedview
     id="namedview7"
     pagecolor="#505050"
     bordercolor="#eeeeee"
     borderopacity="1"
     inkscape:showpageshadow="0"
     inkscape:pageopacity="0"
     inkscape:pagecheckerboard="0"
     inkscape:deskcolor="#505050"
     inkscape:document-units="mm"
     showgrid="false"
     inkscape:zoom="0.74564394"
     inkscape:cx="146.18237"
     inkscape:cy="360.762"
     inkscape:window-width="1920"
     inkscape:window-height="1017"
     inkscape:window-x="-8"
     inkscape:window-y="-8"
     inkscape:window-maximized="1"
     inkscape:current-layer="layer1" /><defs
     id="defs2" /><g
     inkscape:label="Capa 1"
     inkscape:groupmode="layer"
     id="layer1"
     transform="translate(-43.706323,-24.698116)"><path
       style="fill:#000000;stroke-width:0.140568"
       d="m 49.619765,91.741306 c -1.085029,-0.33723 -2.021262,-1.006 -2.314654,-1.65341 -0.12479,-0.27537 -0.186297,-6.96458 -0.187419,-20.38257 l -0.0017,-19.97268 -1.704499,-3.90651 c -0.937474,-2.14857 -1.704801,-4.01024 -1.705169,-4.13704 -3.59e-4,-0.1268 0.153087,-0.31581 0.341011,-0.42004 0.194453,-0.10785 2.61231,-0.56153 5.611306,-1.0529 2.898294,-0.47487 9.390569,-1.54032 14.427277,-2.36765 5.036707,-0.82734 12.470565,-2.04825 16.519683,-2.71314 4.049119,-0.66488 8.372065,-1.37521 9.606555,-1.57852 1.23448,-0.2033 5.71904,-0.9401 9.965674,-1.63732 4.24664,-0.69723 9.86243,-1.61998 12.47955,-2.05057 4.32608,-0.71176 9.02026,-1.48208 25.85689,-4.24316 3.11091,-0.51017 5.82548,-0.92763 6.03238,-0.92768 0.2069,-6e-5 0.50505,0.0872 0.66254,0.19381 0.1575,0.10665 1.10478,2.06617 2.10508,4.35449 2.04982,4.68926 2.03392,4.53878 0.50598,4.78915 -0.42724,0.07 -2.71606,0.44483 -5.08627,0.83294 -2.37022,0.38812 -7.6628,1.2572 -11.7613,1.9313 -4.0985,0.6741 -9.71429,1.5964 -12.47954,2.04955 -2.76526,0.45316 -5.75496,0.94586 -6.64379,1.09491 -1.50882,0.25301 -11.55963,1.90097 -14.364944,2.35532 -10.12857,1.64042 -39.773727,6.52939 -40.042274,6.60362 -0.214614,0.0593 18.72294,0.10226 47.062248,0.10671 45.70451,0.007 47.43213,0.0147 47.71854,0.20869 0.27426,0.18572 0.29717,1.76335 0.29717,20.45875 0,19.63036 -0.0105,20.27228 -0.33971,20.73432 -0.18685,0.26224 -0.65146,0.66038 -1.03248,0.88475 -1.38273,0.81423 3.20667,0.7475 -51.409354,0.7475 H 50.59343 Z m 16.8361,-34.60831 c 0.267375,-0.21715 5.081896,-6.54079 5.081896,-6.67482 0,-0.0847 -1.806725,-0.1203 -6.101451,-0.1203 h -6.10145 l -0.390736,0.46768 c -0.742874,0.88917 -4.823855,6.28027 -4.823855,6.37247 0,0.0509 2.737401,0.0925 6.083115,0.0925 4.656451,0 6.122836,-0.0323 6.252481,-0.13755 z m 27.290981,-3.21874 c 1.40395,-1.8157 2.55664,-3.36382 2.56154,-3.44027 0.007,-0.10991 -1.2768,-0.13294 -6.13445,-0.11004 l -6.143346,0.029 -2.552885,3.30127 c -1.404087,1.8157 -2.558517,3.36382 -2.565399,3.44027 -0.0099,0.10994 1.272437,0.13294 6.134694,0.11004 l 6.147206,-0.029 z m 22.265864,3.21874 c 0.0919,-0.0757 0.54102,-0.63275 0.99796,-1.23798 0.45694,-0.60523 1.24951,-1.64513 1.76128,-2.31089 1.73991,-2.26346 2.32486,-3.05678 2.32486,-3.15304 0,-0.0535 -2.72593,-0.0832 -6.14383,-0.0671 l -6.14384,0.029 -2.5562,3.30127 c -1.40591,1.8157 -2.56012,3.36317 -2.56491,3.43882 -0.007,0.10744 1.32297,0.13756 6.0744,0.13756 4.65763,0 6.12229,-0.0322 6.25028,-0.13756 z m 27.29319,-3.21874 c 1.40395,-1.8157 2.55664,-3.36317 2.56154,-3.43883 0.007,-0.10745 -1.32657,-0.13755 -6.09362,-0.13755 h -6.10251 l -0.52559,0.63808 c -1.03861,1.26089 -4.68688,6.07556 -4.68688,6.18532 0,0.0746 2.06075,0.10245 6.14721,0.0832 l 6.14721,-0.029 z m -78.860326,-7.59559 c 3.148335,-0.51591 5.745528,-0.95107 5.771539,-0.96701 0.02601,-0.0159 -1.729049,-1.31462 -3.900136,-2.88595 -2.475223,-1.79144 -4.062655,-2.853 -4.256382,-2.84635 -0.269916,0.009 -10.883227,1.72776 -11.494139,1.86111 -0.227648,0.0497 0.0873,0.30029 3.408966,2.71243 0.721599,0.52401 1.958421,1.4252 2.748493,2.00264 0.790072,0.57744 1.562701,1.05242 1.716955,1.05552 0.154253,0.003 2.85637,-0.41648 6.004704,-0.93239 z M 85.4538,42.867576 c 5.831066,-0.94808 8.269096,-1.35906 8.477326,-1.42904 0.32741,-0.11002 -7.563956,-5.80219 -7.979596,-5.75581 -0.42806,0.0478 -10.219258,1.65095 -10.957205,1.7941 -0.320966,0.0623 -0.583006,0.1465 -0.582309,0.1872 7.18e-4,0.0407 1.071332,0.84631 2.379193,1.79024 1.30786,0.94394 3.064751,2.21684 3.904203,2.82869 0.959377,0.69925 1.626316,1.09575 1.795618,1.06749 0.148138,-0.0247 1.48138,-0.24201 2.96277,-0.48287 z m 26.7095,-4.38547 c 3.23418,-0.53029 5.88047,-0.99084 5.88064,-1.02345 7.2e-4,-0.12528 -7.74699,-5.66459 -7.96499,-5.6947 -0.21523,-0.0297 -11.618294,1.81777 -11.761564,1.90557 -0.0854,0.0523 0.13285,0.21674 4.284564,3.22786 1.9258,1.39673 3.54185,2.54162 3.59123,2.5442 0.0494,0.003 2.73593,-0.42918 5.97012,-0.95948 z m 23.36054,-3.831 c 2.78048,-0.45708 5.35843,-0.8799 5.72878,-0.9396 0.37035,-0.0597 0.67336,-0.14607 0.67336,-0.19193 0,-0.0459 -1.46271,-1.14575 -3.25046,-2.4442 -1.78774,-1.29845 -3.54521,-2.57687 -3.90546,-2.84093 l -0.65502,-0.4801 -4.48904,0.73906 c -2.46898,0.40648 -5.13547,0.84031 -5.92554,0.96407 -0.79007,0.12375 -1.46734,0.2407 -1.50503,0.25989 -0.0377,0.0192 0.60169,0.51943 1.42086,1.11165 0.81917,0.59222 2.58634,1.88145 3.92704,2.86495 1.34069,0.98351 2.54731,1.78819 2.68136,1.78819 0.13405,0 2.51867,-0.37397 5.29915,-0.83105 z"
       id="path302" /></g></svg>
