<?xml version="1.0" encoding="UTF-8" standalone="no"?>
<!-- Created with Inkscape (http://www.inkscape.org/) -->

<svg
   width="79.91272mm"
   height="82.865814mm"
   viewBox="0 0 79.91272 82.865814"
   version="1.1"
   id="svg5"
   xml:space="preserve"
   inkscape:version="1.2.1 (9c6d41e410, 2022-07-14)"
   sodipodi:docname="logoReelMe.svg"
   xmlns:inkscape="http://www.inkscape.org/namespaces/inkscape"
   xmlns:sodipodi="http://sodipodi.sourceforge.net/DTD/sodipodi-0.dtd"
   xmlns="http://www.w3.org/2000/svg"
   xmlns:svg="http://www.w3.org/2000/svg"><sodipodi:namedview
     id="namedview7"
     pagecolor="#505050"
     bordercolor="#eeeeee"
     borderopacity="1"
     inkscape:showpageshadow="0"
     inkscape:pageopacity="0"
     inkscape:pagecheckerboard="0"
     inkscape:deskcolor="#505050"
     inkscape:document-units="mm"
     showgrid="false"
     inkscape:zoom="1.4912879"
     inkscape:cx="71.750064"
     inkscape:cy="158.25248"
     inkscape:window-width="1920"
     inkscape:window-height="1017"
     inkscape:window-x="-8"
     inkscape:window-y="-8"
     inkscape:window-maximized="1"
     inkscape:current-layer="layer1" /><defs
     id="defs2"><rect
       x="282.59845"
       y="477.95175"
       width="247.03656"
       height="117.5913"
       id="rect370" /></defs><g
     inkscape:label="Capa 1"
     inkscape:groupmode="layer"
     id="layer1"
     transform="translate(-62.237469,-75.969593)"><path
       style="fill:#ffffff;stroke-width:0.264583"
       d="m 66.210215,158.64256 c -0.218281,-0.0831 -0.485024,-0.28205 -0.592762,-0.44213 -0.107739,-0.16008 -0.198919,-11.30434 -0.202626,-24.76502 l -0.0067,-24.47396 -1.576366,-5.42396 c -1.394319,-4.797569 -1.805789,-6.614579 -1.497901,-6.614579 0.0508,0 1.747437,-0.485584 3.770312,-1.079077 4.029758,-1.182293 14.079503,-4.081229 28.813374,-8.311475 5.238754,-1.504098 16.428814,-4.721032 24.866794,-7.148744 l 15.3418,-4.414022 0.37802,0.238452 0.37803,0.238453 1.54393,5.409561 c 1.74713,6.121512 1.76564,6.250377 0.94924,6.606977 -0.56087,0.244988 -15.72578,4.628073 -52.234231,15.097164 -8.706401,2.49664 -16.246544,4.67374 -16.755867,4.838 l -0.926042,0.29867 36.77709,0.13229 36.77708,0.13229 0.0684,24.60625 0.0684,24.60625 -0.44972,0.33073 -0.44973,0.33073 -37.32182,-0.0209 c -20.527011,-0.0115 -37.500427,-0.0889 -37.718708,-0.17195 z m 74.283645,-19.32017 -0.068,-17.66094 -36.57865,-0.0671 -36.578642,-0.0671 v 17.72801 17.72802 h 36.646672 36.64667 z M 75.431037,117.89114 c 0.435938,-1.12779 1.269053,-3.27091 1.851363,-4.7625 l 1.058749,-2.71198 h -2.584908 -2.584905 l -1.766136,4.56406 c -0.971375,2.51024 -1.76372,4.65336 -1.760768,4.7625 0.003,0.10914 1.127805,0.19844 2.499675,0.19844 h 2.494312 z m 13.991603,-1.12448 c 0.647232,-1.67349 1.458408,-3.78685 1.802615,-4.69635 l 0.625829,-1.65365 h -2.449396 -2.449399 l -1.772078,4.58214 c -0.974643,2.52017 -1.772079,4.66777 -1.772079,4.77243 0,0.10466 1.088488,0.15606 2.418863,0.11422 l 2.418863,-0.0761 z m 14.17383,-1.40713 c 0.97464,-2.52018 1.77208,-4.6633 1.77208,-4.7625 0,-0.0992 -1.10133,-0.17961 -2.4474,-0.17868 l -2.44739,0.002 -1.644354,4.29779 c -0.904393,2.36378 -1.720805,4.50615 -1.814245,4.76081 l -0.169894,0.46302 h 2.489562 2.489561 l 1.77208,-4.58214 z m 12.80483,1.40713 c 0.64925,-1.67349 1.4649,-3.79127 1.81257,-4.70617 l 0.63211,-1.66347 -2.39334,0.076 -2.39334,0.076 -1.43583,3.70417 c -0.7897,2.03729 -1.61486,4.15513 -1.83367,4.70631 l -0.39785,1.00214 2.41445,-0.0761 2.41444,-0.0761 z m 14.19597,-1.34079 c 0.96733,-2.48369 1.75878,-4.62682 1.75878,-4.7625 v -0.24671 l -2.4474,5.3e-4 -2.44739,5.3e-4 -1.65033,4.29892 c -0.90768,2.3644 -1.72409,4.50727 -1.81425,4.76193 l -0.16391,0.46303 h 2.50286 2.50286 l 1.75878,-4.5158 z m 9.96086,0.76753 c 0,-2.06155 -0.0568,-3.69149 -0.12616,-3.62211 -0.0694,0.0694 -0.77118,1.75611 -1.55955,3.74827 l -1.43339,3.6221 h 1.55955 1.55955 z M 71.634173,105.9015 c 1.018646,-0.30879 1.930734,-0.63958 2.026859,-0.73511 0.184957,-0.1838 1.129393,-9.819845 0.974294,-9.940688 -0.04991,-0.03888 -1.162299,0.237789 -2.471986,0.61482 l -2.38125,0.685514 -0.30724,3.307292 c -0.168981,1.819012 -0.385601,4.121612 -0.481372,5.116882 l -0.174133,1.80959 0.481373,-0.14844 c 0.264755,-0.0816 1.314809,-0.40108 2.333455,-0.70986 z m 13.03073,-3.74213 2.182812,-0.59602 0.0055,-0.40199 c 0.003,-0.22109 0.178093,-2.068866 0.389043,-4.106157 0.210952,-2.037292 0.387072,-4.13679 0.39138,-4.665552 l 0.0078,-0.961384 -2.169731,0.630803 c -2.719798,0.790723 -2.465573,0.342929 -2.836437,4.996133 -0.173971,2.182812 -0.382159,4.355707 -0.462642,4.828647 -0.175205,1.02956 -0.242166,1.02216 2.492248,0.27552 z m 13.163021,-3.749903 2.116667,-0.617521 0.451609,-4.987947 c 0.24838,-2.743369 0.42332,-5.016227 0.38875,-5.050792 -0.0867,-0.08667 -4.462836,1.194612 -4.621276,1.35305 -0.07028,0.07028 -0.283316,1.828014 -0.473412,3.906073 -0.190095,2.078058 -0.409688,4.284305 -0.487984,4.902769 l -0.142356,1.124479 0.325667,-0.0063 c 0.179118,-0.0035 1.278168,-0.284179 2.442335,-0.623816 z m 12.658926,-3.637558 c 1.04124,-0.309927 1.97782,-0.638661 2.08128,-0.730525 0.17851,-0.158472 0.99965,-7.8217 1.00159,-9.34715 l 7.9e-4,-0.719299 -0.33073,0.109556 c -0.1819,0.06026 -1.17495,0.353563 -2.20677,0.651796 l -1.87605,0.54224 -0.44245,4.697714 c -0.49321,5.23806 -0.4995,5.35917 -0.27818,5.35917 0.0866,0 1.00928,-0.253577 2.05052,-0.563502 z m 13.73326,-3.960765 1.78594,-0.525224 v -0.551405 c 0,-0.303271 0.18645,-2.512875 0.41433,-4.910227 0.48821,-5.135964 0.67528,-4.742271 -1.90666,-4.012474 -2.69722,0.762382 -2.49502,0.428163 -2.89337,4.782443 -0.1906,2.083416 -0.41236,4.306819 -0.4928,4.940898 l -0.14624,1.152869 0.72643,-0.175829 c 0.39954,-0.09671 1.53011,-0.412179 2.51237,-0.701051 z m 11.82588,-3.409402 1.07721,-0.290063 -0.14809,-0.584488 c -0.0814,-0.321469 -0.5423,-1.953707 -1.0241,-3.627197 l -0.87601,-3.042708 -0.15304,0.79375 c -0.0842,0.436562 -0.22479,1.74625 -0.3125,2.910416 -0.0877,1.164167 -0.23025,2.641704 -0.31677,3.283413 l -0.15732,1.16675 0.41671,-0.159907 c 0.22919,-0.08795 0.90145,-0.290433 1.49391,-0.449966 z"
       id="path314" /><text
       xml:space="preserve"
       transform="matrix(0.26458333,0,0,0.26458333,-1.6309075,2.5090885)"
       id="text368"
       style="font-size:66.6667px;line-height:1.25;font-family:sans-serif;white-space:pre;shape-inside:url(#rect370);display:inline;fill:#ffffff"><tspan
         x="282.59766"
         y="539.9512"
         id="tspan448"><tspan
           style="font-weight:bold;font-family:Lato;-inkscape-font-specification:'Lato Bold'"
           id="tspan446"></tspan></tspan></text></g></svg>
